<svg width="140" height="140" viewBox="0 0 140 140" fill="none" xmlns="http://www.w3.org/2000/svg">
<mask id="mask0" mask-type="alpha" maskUnits="userSpaceOnUse" x="0" y="0" width="140" height="140">
<rect width="140" height="140" fill="#C4C4C4"/>
</mask>
<g mask="url(#mask0)">
<path d="M84.0057 50.1029C104.701 56.7112 102.613 87.0986 98.7613 100.882C96.5444 108.816 83.6422 114.959 81.7786 108.546C76.1975 89.3405 82.5155 65.4908 70.1978 68.6946C57.8801 71.8985 32.0018 91.5451 38.2794 67.5564C44.557 43.5678 9.03428 36.3584 39.6167 33.4819C70.1992 30.6053 58.1361 41.8426 84.0057 50.1029Z" fill="url(#paint0_linear)"/>
<g clip-path="url(#clip0)">
<path d="M113.651 94.5494L113.535 94.4294C112.955 93.589 112.027 93.3489 111.098 93.589L96.7071 98.0311L84.6371 81.3432L91.4845 63.935C92.6451 61.0537 92.0648 57.6921 89.9758 55.411L71.5227 34.6412C68.9694 31.6398 64.6753 31.1596 61.4257 33.3206L52.1411 39.6836L43.6689 47.1271C40.7675 49.7684 40.0712 54.0904 42.0441 57.452L56.2031 81.5833C57.5958 83.9845 60.1491 85.4251 62.9344 85.4251C63.1666 85.4251 63.5147 85.4251 63.7468 85.4251L80.4591 83.6243L92.9933 100.912L84.7532 113.398C84.1729 114.239 84.289 115.319 84.9853 116.16C85.6817 117 86.9583 117.12 87.8867 116.52L113.071 97.5508C114 96.9506 114.232 95.5099 113.651 94.5494ZM63.5147 81.8234C61.8899 81.9435 60.2651 81.1031 59.3367 79.6624L45.1777 55.6511C44.0171 53.7302 44.4813 51.3291 46.1061 49.8884L54.3462 42.565L63.5147 36.322C65.2556 35.1215 67.6928 35.3616 69.0855 37.0424L87.4225 57.9322C88.351 59.0127 88.6991 60.3333 88.467 61.654H57.944C57.944 61.654 61.3096 75.2203 72.219 77.0212L71.5227 81.1031L63.5147 81.8234Z" fill="#010202"/>
</g>
</g>
<defs>
<linearGradient id="paint0_linear" x1="97.1329" y1="89.9007" x2="17.311" y2="71.4422" gradientUnits="userSpaceOnUse">
<stop stop-color="#E0B452"/>
<stop offset="0.182292" stop-color="#BA8636"/>
<stop offset="0.390625" stop-color="#B07A2C"/>
<stop offset="0.546875" stop-color="#BB8B2C"/>
<stop offset="0.729167" stop-color="#CC9E39"/>
<stop offset="1" stop-color="#DEB14F"/>
</linearGradient>
<clipPath id="clip0">
<rect width="73" height="85" fill="white" transform="translate(41 32)"/>
</clipPath>
</defs>
</svg>
