<svg width="140" height="140" viewBox="0 0 140 140" fill="none" xmlns="http://www.w3.org/2000/svg">
<mask id="mask0" mask-type="alpha" maskUnits="userSpaceOnUse" x="0" y="0" width="140" height="140">
<rect width="140" height="140" fill="#C4C4C4"/>
</mask>
<g mask="url(#mask0)">
<path d="M61.7738 57.6386C63.016 39.4767 67.3123 19.6982 79.2986 20.0781C86.1978 20.2967 90.7946 25.9434 90.3869 31.5247C89.8773 38.5014 104.205 54.8421 109.274 64.2256C114.342 73.6091 105.55 98.0407 84.7739 97.7257C63.9983 97.4106 42.6259 102.36 34.174 78.0476C25.7221 53.7355 60.2212 80.341 61.7738 57.6386Z" fill="url(#paint0_linear)"/>
<path d="M75.4053 120.647C77.8134 116.119 81.3683 112.057 85.6112 109.039C89.1661 106.485 93.065 104.744 97.3079 103.699C99.8307 103.119 102.353 102.771 104.991 102.771C105.908 102.771 106.711 102.771 107.514 102.887C108.546 103.003 109.693 103.119 110.725 103.235L110.266 106.137L109.807 108.923C109.693 108.923 109.693 108.923 109.578 108.923C108.775 108.807 107.972 108.69 107.17 108.574C106.482 108.574 105.908 108.458 105.106 108.458C102.927 108.458 100.748 108.69 98.7986 109.155C95.2437 109.967 92.0329 111.476 89.0514 113.566C85.3818 116.236 82.2857 119.718 80.2216 123.665L75.4053 120.647Z" fill="#010202"/>
<path d="M114.589 93.9286L113.213 99.6164C110.805 99.1521 108.282 98.92 105.76 98.92C104.383 98.92 103.007 99.0361 101.746 99.1521C98.6498 99.5004 95.6683 100.081 92.8015 101.125C89.1319 102.402 85.6917 104.143 82.5956 106.465C78.238 109.599 74.5684 113.662 71.7016 118.305L67 114.939C70.0962 109.715 74.3391 105.188 79.1554 101.706C82.7102 99.0361 86.6091 97.0627 90.852 95.5537C94.1776 94.3929 97.6178 93.5804 101.173 93.2322C102.663 93.1161 104.154 93 105.76 93C108.741 93 111.723 93.3482 114.589 93.9286Z" fill="#010202"/>
<path d="M116 83.3855C108.776 81.8765 101.437 81.8765 94.3268 83.3855C84.5795 75.2601 72.3095 70.733 59.6954 70.733C46.0493 70.733 32.9766 75.8405 23 85.2428L26.4402 89.8859C35.4994 81.2961 47.3107 76.5369 59.6954 76.5369C69.672 76.5369 79.3046 79.671 87.3317 85.3588C85.8409 85.9392 84.3502 86.5196 82.8594 87.1C75.8644 82.8051 67.8372 80.5997 59.5808 80.5997C47.9988 80.5997 36.8755 85.1267 28.5043 93.02L31.9445 97.6631C39.2836 90.4663 49.2602 86.4035 59.5808 86.4035C65.5438 86.4035 71.3921 87.7965 76.7818 90.3502C75.0617 91.3949 73.4562 92.5557 71.8508 93.8325C67.9519 92.3235 63.8237 91.511 59.5808 91.511C50.2922 91.511 41.4624 95.3415 35.1554 102.074L38.5956 106.833C43.8705 100.797 51.439 97.3149 59.5808 97.3149C61.9889 97.3149 64.397 97.6631 66.8052 98.2435C63.5943 101.494 60.8422 105.092 58.434 108.923L63.1356 112.289C66.0025 107.414 69.672 103.003 74.0296 99.4043C77.2404 96.7345 80.91 94.4129 84.6942 92.6718C87.7904 91.2788 90.8866 90.2341 94.0974 89.4216C100.748 87.9126 107.744 87.7965 114.509 89.1894L116 83.3855Z" fill="#010202"/>
<path d="M89.2871 68.6725C94.2048 68.6725 98.1913 64.686 98.1913 59.7683C98.1913 54.8506 94.2048 50.864 89.2871 50.864C84.3694 50.864 80.3828 54.8506 80.3828 59.7683C80.3828 64.686 84.3694 68.6725 89.2871 68.6725Z" fill="#010202"/>
<path d="M91.6551 45.118L92.9713 56.1072L103.952 57.4935L93.9072 62.1411L95.9819 73.0126L88.4578 64.8959L78.7595 70.2285L84.154 60.5644L76.0854 52.9887L86.9435 55.1327L91.6551 45.118Z" fill="black"/>
<path d="M82.3717 47.4202L90.3349 55.1067L99.7221 49.2438L94.8726 59.1925L103.349 66.3086L92.389 64.7707L88.2407 75.0316L86.3164 64.1324L75.2758 63.3579L85.0468 58.1598L82.3717 47.4202Z" fill="black"/>
</g>
<defs>
<linearGradient id="paint0_linear" x1="70.688" y1="23.5976" x2="71.6173" y2="92.2423" gradientUnits="userSpaceOnUse">
<stop stop-color="#E0B452"/>
<stop offset="0.182292" stop-color="#BA8636"/>
<stop offset="0.390625" stop-color="#B07A2C"/>
<stop offset="0.546875" stop-color="#BB8B2C"/>
<stop offset="0.729167" stop-color="#CC9E39"/>
<stop offset="1" stop-color="#DEB14F"/>
</linearGradient>
</defs>
</svg>
