<svg width="140" height="140" viewBox="0 0 140 140" fill="none" xmlns="http://www.w3.org/2000/svg">
<mask id="mask0" mask-type="alpha" maskUnits="userSpaceOnUse" x="0" y="0" width="140" height="140">
<rect width="140" height="140" fill="#C4C4C4"/>
</mask>
<g mask="url(#mask0)">
<path d="M76.0618 33.0345C88.1828 15.0051 101.839 18.6749 114 26.2198C121 30.5625 122.381 39.1413 118.63 44.6665C113.94 51.5729 118.99 67.9303 118.63 80.6527C118.269 93.3752 97.3457 113.368 76.0618 100.645C54.7778 87.9227 27.0005 89.3767 32.7724 59.2064C38.5444 29.0361 60.9105 55.5714 76.0618 33.0345Z" fill="url(#paint0_linear)"/>
<path d="M40.6872 68.3838C37.8767 53.2176 39.5162 45.815 40.6872 44.0095C46.5424 42.0836 57.5696 50.2285 62.3513 54.5416C71.4854 45.8752 78.453 44.1098 80.7951 44.3104C85.772 50.9306 85.772 60.872 82.8444 68.0829C82.7169 68.3971 81.3806 70.9918 80.7951 72.2957C90.7489 76.2077 93.4512 78.9518 93.9692 81.6242C94.5547 84.6445 86.6503 89.4592 81.6734 90.3508L75.5255 90.6517C79.0386 98.7765 80.2096 114.424 80.2096 115.929C80.2096 117.433 79.9168 118.637 77.5748 119.54C75.7011 120.262 74.8424 118.637 74.6472 117.734C74.413 102.809 71.622 93.4602 70.2558 90.6517C61.5902 70.6708 58.8382 69.2866 58.5455 71.0921C63.2296 83.851 65.3765 94.6639 65.8644 98.4755C60.4777 105.698 52.8855 108.707 49.7627 109.309C47.4207 107.142 47.6158 97.5728 48.0062 93.059C36.2958 93.059 27.1228 85.2352 24 81.3232C25.6394 76.5086 35.8079 70.6908 40.6872 68.3838Z" fill="black"/>
</g>
<defs>
<linearGradient id="paint0_linear" x1="103" y1="24.7197" x2="63" y2="96.2197" gradientUnits="userSpaceOnUse">
<stop stop-color="#E0B452"/>
<stop offset="0.182292" stop-color="#BA8636"/>
<stop offset="0.390625" stop-color="#B07A2C"/>
<stop offset="0.546875" stop-color="#BB8B2C"/>
<stop offset="0.729167" stop-color="#CC9E39"/>
<stop offset="1" stop-color="#DEB14F"/>
</linearGradient>
</defs>
</svg>
