<svg width="140" height="140" viewBox="0 0 140 140" fill="none" xmlns="http://www.w3.org/2000/svg">
<mask id="mask0" mask-type="alpha" maskUnits="userSpaceOnUse" x="0" y="0" width="140" height="140">
<rect width="140" height="140" fill="#C4C4C4"/>
</mask>
<g mask="url(#mask0)">
<path d="M14.1426 52.7484C15.3847 34.5864 72.0819 30.0421 84.0742 30.0421C100.143 30.0422 107.143 44.2487 107.143 55.2484C107.143 62.2437 86.574 65.3649 91.6426 74.7484C96.7111 84.1319 122.418 104.563 101.643 104.248C80.867 103.933 53.7004 105.402 45.2485 81.0894C36.7966 56.7772 12.5899 75.4508 14.1426 52.7484Z" fill="url(#paint0_linear)"/>
<g clip-path="url(#clip0)">
<path d="M102.714 71.053V74.0304C102.614 74.0304 102.415 74.0304 102.315 74.0304H69.8195C64.0381 74.0304 59.1538 70.4575 57.1602 65.3958C58.9544 64.5026 60.948 64.0063 63.141 64.0063H69.5205V72.7402H88.36V64.0063H95.6367C99.5242 64.0063 102.714 67.1823 102.714 71.053Z" fill="#010202"/>
<path d="M109.392 52.295V66.9838C109.392 69.6635 107.897 71.9462 105.704 73.1371V71.0529C105.704 65.495 101.218 61.0289 95.6363 61.0289H63.1406C59.0537 61.0289 55.0665 62.6168 52.0761 65.2965H30.1464C29.4487 65.2965 28.8506 64.701 28.8506 64.0063V55.3717C28.8506 54.677 29.4487 54.0815 30.1464 54.0815H57.0601C59.0537 48.9206 64.0377 45.2484 69.8191 45.2484H80.6843V53.9822H99.5238V45.2484H102.315C106.202 45.2484 109.392 48.4244 109.392 52.295Z" fill="#010202"/>
<path d="M96.435 89.5132V92.7884C96.2356 92.7884 95.9366 92.7884 95.6375 92.7884H63.1418C57.3604 92.7884 52.476 89.1162 50.4824 84.0545C52.3763 83.062 54.5693 82.4666 56.862 82.4666H59.653V91.2004H78.4925V82.4666H89.258C93.2452 82.4666 96.435 85.6425 96.435 89.5132Z" fill="#010202"/>
<path d="M102.714 71.053V85.7417C102.714 88.2229 101.419 90.5056 99.4249 91.6966V89.5131C99.4249 83.9552 94.9393 79.4891 89.3572 79.4891H56.8615C52.5752 79.4891 48.588 81.1763 45.4979 83.9552H23.5683C22.8705 83.9552 22.2725 83.3597 22.2725 82.665V74.0304C22.2725 73.3357 22.8705 72.7402 23.5683 72.7402H50.482C51.6781 69.5642 54.0704 66.8845 57.1605 65.3958C58.9548 64.5026 60.9484 64.0063 63.1413 64.0063H69.5209V72.7402H88.3604V64.0063H95.6371C99.5246 64.0063 102.714 67.1823 102.714 71.053Z" fill="#010202"/>
<path d="M96.4341 89.5131V104.202C96.4341 108.073 93.2443 111.248 89.3568 111.248H56.8611C51.0796 111.248 46.0956 107.576 44.2017 102.515H17.288C16.5903 102.515 15.9922 101.919 15.9922 101.224V92.5898C15.9922 91.8951 16.5903 91.2996 17.288 91.2996H44.2017C45.3978 88.2229 47.6905 85.6424 50.4815 84.1537C52.3755 83.1612 54.5684 82.5657 56.8611 82.5657H59.6521V91.2996H78.4916V82.5657H89.2571C93.2443 82.4665 96.4341 85.6424 96.4341 89.5131Z" fill="#010202"/>
</g>
</g>
<defs>
<linearGradient id="paint0_linear" x1="81.7622" y1="26.6382" x2="82.6915" y2="95.283" gradientUnits="userSpaceOnUse">
<stop stop-color="#E0B452"/>
<stop offset="0.182292" stop-color="#BA8636"/>
<stop offset="0.390625" stop-color="#B07A2C"/>
<stop offset="0.546875" stop-color="#BB8B2C"/>
<stop offset="0.729167" stop-color="#CC9E39"/>
<stop offset="1" stop-color="#DEB14F"/>
</linearGradient>
<clipPath id="clip0">
<rect width="93.5" height="66" fill="white" transform="translate(15.8926 45.2484)"/>
</clipPath>
</defs>
</svg>
