<svg width="140" height="140" viewBox="0 0 140 140" fill="none" xmlns="http://www.w3.org/2000/svg">
<mask id="mask0" mask-type="alpha" maskUnits="userSpaceOnUse" x="0" y="0" width="140" height="140">
<rect width="140" height="140" fill="#C4C4C4"/>
</mask>
<g mask="url(#mask0)">
<path d="M59.4316 33.8699C60.6738 15.7079 68.4452 40.4125 80.4315 40.7923C87.3307 41.011 91.4314 58.2922 91.4314 69.292C91.4314 76.2872 111.637 68.634 116.706 78.0175C121.774 87.401 107.506 100.607 86.7302 100.292C65.9546 99.977 50.0577 116.152 41.6058 91.8396C33.1539 67.5274 57.879 56.5723 59.4316 33.8699Z" fill="url(#paint0_linear)"/>
<g clip-path="url(#clip0)">
<path d="M77.4071 72.3653C81.8388 72.3653 85.4314 68.725 85.4314 64.2345C85.4314 59.7439 81.8388 56.1036 77.4071 56.1036C72.9754 56.1036 69.3828 59.7439 69.3828 64.2345C69.3828 68.725 72.9754 72.3653 77.4071 72.3653Z" fill="#010202"/>
<path d="M69.3827 88.3259C73.8144 88.3259 77.407 84.6856 77.407 80.195C77.407 75.7045 73.8144 72.0641 69.3827 72.0641C64.951 72.0641 61.3584 75.7045 61.3584 80.195C61.3584 84.6856 64.951 88.3259 69.3827 88.3259Z" fill="#010202"/>
<path d="M59.8729 105.893C64.3046 105.893 67.8972 102.252 67.8972 97.7617C67.8972 93.2712 64.3046 89.6309 59.8729 89.6309C55.4412 89.6309 51.8486 93.2712 51.8486 97.7617C51.8486 102.252 55.4412 105.893 59.8729 105.893Z" fill="#010202"/>
<path fill-rule="evenodd" clip-rule="evenodd" d="M48.4802 64.2344C48.4802 68.725 44.8876 72.3653 40.4559 72.3653C36.0242 72.3653 32.4316 68.725 32.4316 64.2344C32.4316 59.7438 36.0242 56.1035 40.4559 56.1035C44.8876 56.1035 48.4802 59.7438 48.4802 64.2344ZM40.8522 61.725C40.8522 63.6099 39.3442 65.1379 37.4839 65.1379C35.6237 65.1379 34.1157 63.6099 34.1157 61.725C34.1157 59.84 35.6237 58.312 37.4839 58.312C39.3442 58.312 40.8522 59.84 40.8522 61.725Z" fill="#010202"/>
<path fill-rule="evenodd" clip-rule="evenodd" d="M67.0056 64.2344C67.0056 68.725 63.413 72.3653 58.9813 72.3653C54.5496 72.3653 50.957 68.725 50.957 64.2344C50.957 59.7438 54.5496 56.1035 58.9813 56.1035C63.413 56.1035 67.0056 59.7438 67.0056 64.2344ZM59.4767 61.725C59.4767 63.6099 57.9687 65.1379 56.1085 65.1379C54.2482 65.1379 52.7402 63.6099 52.7402 61.725C52.7402 59.84 54.2482 58.312 56.1085 58.312C57.9687 58.312 59.4767 59.84 59.4767 61.725Z" fill="#010202"/>
<path fill-rule="evenodd" clip-rule="evenodd" d="M58.9812 80.1951C58.9812 84.6856 55.3886 88.326 50.9569 88.326C46.5252 88.326 42.9326 84.6856 42.9326 80.1951C42.9326 75.7045 46.5252 72.0642 50.9569 72.0642C55.3886 72.0642 58.9812 75.7045 58.9812 80.1951ZM51.8483 77.4847C51.8483 79.3697 50.3403 80.8977 48.48 80.8977C46.6198 80.8977 45.1118 79.3697 45.1118 77.4847C45.1118 75.5998 46.6198 74.0718 48.48 74.0718C50.3403 74.0718 51.8483 75.5998 51.8483 77.4847Z" fill="#010202"/>
<path d="M78.3979 37.9345C76.9119 46.9689 73.2465 50.3818 69.7792 51.5864C67.7979 52.8913 64.0334 53.7948 59.7736 53.7948C57.297 53.7948 55.0185 53.4936 53.1362 52.9917C36.7904 48.9765 42.14 33.5178 42.14 33.5178C45.211 34.0197 47.5886 34.8227 49.4708 35.7262C47.8857 42.7528 52.3437 46.4669 52.5418 46.6677C50.6596 43.2548 51.254 39.5406 52.0465 37.3323C52.1456 36.8304 52.3437 36.3285 52.5418 35.9269V35.8265C52.5418 35.7262 52.5418 35.7262 52.6409 35.6258C52.74 35.425 52.74 35.2243 52.839 35.1239C55.5138 29.5025 61.1605 26.7922 61.1605 26.7922C63.6371 30.2052 64.925 33.2166 65.6185 35.7262C58.7829 40.5445 59.0801 46.9689 59.0801 46.9689C61.3586 40.2433 68.7885 37.6334 68.7885 37.6334C73.6428 36.2281 78.3979 37.9345 78.3979 37.9345Z" fill="#010202"/>
<path d="M52.9378 35.1239C52.9378 35.1239 52.8388 35.3247 52.6406 35.6258C52.7397 35.425 52.8388 35.3247 52.9378 35.1239Z" fill="#010202"/>
</g>
</g>
<defs>
<linearGradient id="paint0_linear" x1="78.1196" y1="37.3898" x2="79.0489" y2="106.035" gradientUnits="userSpaceOnUse">
<stop stop-color="#E0B452"/>
<stop offset="0.182292" stop-color="#BA8636"/>
<stop offset="0.390625" stop-color="#B07A2C"/>
<stop offset="0.546875" stop-color="#BB8B2C"/>
<stop offset="0.729167" stop-color="#CC9E39"/>
<stop offset="1" stop-color="#DEB14F"/>
</linearGradient>
<clipPath id="clip0">
<rect width="53" height="79" fill="white" transform="translate(32.4316 26.7922)"/>
</clipPath>
</defs>
</svg>
