<svg width="140" height="140" viewBox="0 0 140 140" fill="none" xmlns="http://www.w3.org/2000/svg">
<mask id="mask0" mask-type="alpha" maskUnits="userSpaceOnUse" x="0" y="0" width="140" height="140">
<rect width="140" height="140" fill="#C4C4C4"/>
</mask>
<g mask="url(#mask0)">
<path d="M69.4415 60.0345C81.5625 42.0051 95.2184 45.6749 107.38 53.2198C114.38 57.5625 115.761 66.1413 112.009 71.6665C107.32 78.5729 87.2405 85.7776 86.8798 98.5C86.519 111.222 79.6638 111.222 58.3799 98.5C37.096 85.7776 20.3803 116.377 26.1522 86.2064C31.9241 56.0361 54.2903 82.5714 69.4415 60.0345Z" fill="url(#paint0_linear)"/>
<path d="M80.2119 47.0172H83.2881V42.8266H92.0508C93.7288 45.6203 97.3644 47.4828 101.466 47.4828C107.246 47.4828 112 43.851 112 39.288C112 34.7249 107.339 31 101.559 31C97.7373 31 94.4746 32.5831 92.6102 35.0043H83.2881V32.2106H63.8983V35.0043H54.4831C52.6186 32.6762 49.3559 31 45.5339 31C39.661 31 35 34.6318 35 39.1948C35 43.7579 39.661 47.3897 45.5339 47.3897C49.7288 47.3897 53.2712 45.5272 54.9492 42.7335H63.8983V46.9241H66.9746V48.8797H71.0763L66.9746 51.4871V54.467H71.0763L66.9746 57.0745V60.4269H70.8898L67.6271 62.5688C67.161 62.755 66.6949 62.9413 66.2288 63.2206C64.5508 64.0587 63.1525 65.1762 62.1271 66.5731H50.4746V62.6619H41.1525V96H50.4746V75.7923H61.7542C62.7797 77.2822 64.2712 78.586 66.2288 79.6103C66.5085 79.7034 66.6949 79.7966 66.9746 79.9828V80.7278H69.0254H70.1441L69.8644 80.914C70.0508 80.914 70.2373 81.0072 70.4237 81.0072L66.9746 83.149V86.3152H70.8898L66.9746 88.7364V92.2751H70.6102L66.9746 94.6031V96H80.3051V90.0401H75.5508L80.3051 86.967V83.9871H75.7373L80.3051 81.1003V79.8897C82.5424 78.9585 84.3136 77.4685 85.5254 75.7923H96.0593V95.9069H105.381V62.6619H96.0593V66.4799H85.0593C83.9407 64.99 82.2627 63.6862 80.2119 62.8481V58.2851H75.6441L80.2119 55.3983V52.3252H75.9237L80.2119 49.6246V47.0172Z" fill="#010202"/>
</g>
<defs>
<linearGradient id="paint0_linear" x1="96.3799" y1="51.7197" x2="56.3799" y2="123.22" gradientUnits="userSpaceOnUse">
<stop stop-color="#E0B452"/>
<stop offset="0.182292" stop-color="#BA8636"/>
<stop offset="0.390625" stop-color="#B07A2C"/>
<stop offset="0.546875" stop-color="#BB8B2C"/>
<stop offset="0.729167" stop-color="#CC9E39"/>
<stop offset="1" stop-color="#DEB14F"/>
</linearGradient>
</defs>
</svg>
