<svg width="140" height="140" viewBox="0 0 140 140" fill="none" xmlns="http://www.w3.org/2000/svg">
<mask id="mask0" mask-type="alpha" maskUnits="userSpaceOnUse" x="0" y="0" width="140" height="140">
<rect width="140" height="140" fill="#C4C4C4"/>
</mask>
<g mask="url(#mask0)">
<path d="M84.3275 36.0345C96.4485 18.0051 110.104 21.6749 122.266 29.2198C129.266 33.5625 130.647 42.1413 126.895 47.6665C122.206 54.5729 108.126 60.7776 107.766 73.5C107.405 86.2224 48.6243 121.14 24.2658 116.5C-7.23415 110.5 26.4937 93.1703 32.2656 63C38.0375 32.8297 69.1762 58.5714 84.3275 36.0345Z" fill="url(#paint0_linear)"/>
<g clip-path="url(#clip0)">
<path d="M76.0628 68.6658H49.5078C50.7116 64.76 54.1815 61.8307 58.4303 61.4122V48.0209H67.1403V61.4122C69.4772 61.6214 71.6016 62.6676 73.2303 64.202C74.5758 65.3877 75.5671 66.9221 76.0628 68.6658Z" fill="#010202"/>
<path d="M78.6124 68.6658C78.0459 66.3642 76.9129 64.3415 75.2842 62.6676C76.488 61.9701 77.9043 61.4819 79.3914 61.3424V48.0209H88.1014V61.4122C92.3502 61.8307 95.8201 64.76 97.0239 68.6658H78.6124Z" fill="#010202"/>
<path d="M59.2092 47.1141H65.6533C66.4322 47.1141 67.0695 46.4864 67.0695 45.7192V41.3949C67.0695 40.6277 66.4322 40 65.6533 40H59.2092C58.4303 40 57.793 40.6277 57.793 41.3949V45.6495C57.793 46.4864 58.4303 47.1141 59.2092 47.1141Z" fill="#010202"/>
<path d="M80.5237 47.1141H86.9677C87.7467 47.1141 88.384 46.4864 88.384 45.7192V41.3949C88.384 40.6277 87.7467 40 86.9677 40H80.5237C79.7447 40 79.1074 40.6277 79.1074 41.3949V45.6495C79.1074 46.4864 79.7447 47.1141 80.5237 47.1141Z" fill="#010202"/>
<path fill-rule="evenodd" clip-rule="evenodd" d="M107.646 92.7282H38.8857C37.3986 92.7282 36.2656 91.6122 36.2656 90.2173V73.6874C36.2656 72.2925 37.3986 71.1068 38.8857 71.1068H107.646C109.062 71.1068 110.266 72.2228 110.266 73.6874V90.2173C110.266 91.6122 109.133 92.7282 107.646 92.7282ZM42.2141 83.5913C43.0354 83.5913 43.7012 82.9356 43.7012 82.1267C43.7012 81.3177 43.0354 80.662 42.2141 80.662C41.3928 80.662 40.7271 81.3177 40.7271 82.1267C40.7271 82.9356 41.3928 83.5913 42.2141 83.5913ZM107.15 81.9174C107.15 82.7264 106.484 83.3821 105.663 83.3821C104.842 83.3821 104.176 82.7264 104.176 81.9174C104.176 81.1085 104.842 80.4528 105.663 80.4528C106.484 80.4528 107.15 81.1085 107.15 81.9174Z" fill="#010202"/>
<path fill-rule="evenodd" clip-rule="evenodd" d="M107.646 117H38.8857C37.4695 117 36.2656 115.884 36.2656 114.419V97.9592C36.2656 96.5642 37.3986 95.3785 38.8857 95.3785H107.646C109.062 95.3785 110.266 96.4945 110.266 97.9592V114.419C110.266 115.884 109.133 117 107.646 117ZM42.2141 108.282C43.0354 108.282 43.7012 107.626 43.7012 106.817C43.7012 106.008 43.0354 105.352 42.2141 105.352C41.3928 105.352 40.7271 106.008 40.7271 106.817C40.7271 107.626 41.3928 108.282 42.2141 108.282ZM107.15 106.608C107.15 107.417 106.484 108.072 105.663 108.072C104.842 108.072 104.176 107.417 104.176 106.608C104.176 105.799 104.842 105.143 105.663 105.143C106.484 105.143 107.15 105.799 107.15 106.608Z" fill="#010202"/>
</g>
</g>
<defs>
<linearGradient id="paint0_linear" x1="111.266" y1="27.7198" x2="71.2656" y2="99.2198" gradientUnits="userSpaceOnUse">
<stop stop-color="#E0B452"/>
<stop offset="0.182292" stop-color="#BA8636"/>
<stop offset="0.390625" stop-color="#B07A2C"/>
<stop offset="0.546875" stop-color="#BB8B2C"/>
<stop offset="0.729167" stop-color="#CC9E39"/>
<stop offset="1" stop-color="#DEB14F"/>
</linearGradient>
<clipPath id="clip0">
<rect width="74" height="77" fill="white" transform="translate(36.2656 40)"/>
</clipPath>
</defs>
</svg>
