<svg width="174" height="170" viewBox="0 0 174 170" fill="none" xmlns="http://www.w3.org/2000/svg">
<path fill-rule="evenodd" clip-rule="evenodd" d="M51.3676 34.6839C49.0955 28.9919 42.6488 26.2085 36.9479 28.4582L21.5647 34.5288C19.8497 35.2056 17.9107 34.3639 17.2339 32.6489C16.5572 30.9339 17.3988 28.9949 19.1138 28.3182L34.4971 22.2476C43.6185 18.6481 53.9333 23.1015 57.5685 32.2087L89.094 111.187C89.1373 111.296 89.1746 111.405 89.2059 111.515C90.1546 111.381 91.1256 111.312 92.1138 111.312C99.7951 111.312 106.438 115.505 109.607 121.596L147.025 106.005C148.727 105.296 150.682 106.101 151.391 107.802C152.1 109.504 151.295 111.459 149.593 112.168L111.511 128.036C111.562 128.575 111.588 129.121 111.588 129.673C111.588 139.813 102.869 148.034 92.1138 148.034C81.3588 148.034 72.6401 139.813 72.6401 129.673C72.6401 122.699 76.764 116.633 82.8381 113.525L51.3676 34.6839ZM157.1 98.4826L134.206 40.2463L76.1446 62.427L92.2667 105.663C92.9109 107.391 94.8335 108.269 96.561 107.625C98.2886 106.981 99.1668 105.058 98.5226 103.331L84.7147 66.3004L95.859 62.0429L98.3116 68.4362C98.972 70.1576 100.903 71.0177 102.624 70.3573L119.853 63.748C121.574 63.0877 122.434 61.1569 121.774 59.4355L119.334 53.0749L130.411 48.8432L148.421 94.6563L110.163 109.307C108.442 109.966 107.58 111.897 108.24 113.618C108.899 115.34 110.829 116.202 112.551 115.542L157.1 98.4826ZM140.691 93.2506C142.393 92.5415 143.198 90.587 142.489 88.8851C141.78 87.1832 139.825 86.3784 138.123 87.0875L124.77 92.6515C123.068 93.3606 122.263 95.3151 122.972 97.017C123.681 98.7189 125.636 99.5237 127.338 98.8146L140.691 93.2506ZM104.911 129.673C104.911 135.761 99.557 141.357 92.1138 141.357C84.6707 141.357 79.3168 135.761 79.3168 129.673C79.3168 123.584 84.6707 117.989 92.1138 117.989C99.557 117.989 104.911 123.584 104.911 129.673ZM103.35 62.9279L102.372 60.38L113.367 56.1621L114.345 58.71L103.35 62.9279Z" fill="black"/>
</svg>
