<svg width="174" height="170" viewBox="0 0 174 170" fill="none" xmlns="http://www.w3.org/2000/svg">
<path fill-rule="evenodd" clip-rule="evenodd" d="M56.8068 42.7453C56.8068 41.2291 58.0359 40 59.5521 40H111.713V60.5897H131.396C133.367 60.5897 135.186 61.6454 136.163 63.3562L146.34 81.1647L147.584 83.2384H152.206C155.239 83.2384 157.697 85.6967 157.697 88.7291V108.99C157.697 110.3 157.228 111.568 156.375 112.563L153.74 115.637C152.697 116.854 151.174 117.555 149.571 117.555H144.64C144.282 124.817 138.281 130.595 130.93 130.595C123.812 130.595 117.96 125.178 117.271 118.241H107.595L107.58 118.241H66.3479C65.6591 125.178 59.8068 130.595 52.6891 130.595C45.5715 130.595 39.7192 125.178 39.0304 118.241H27.9815C26.4653 118.241 25.2362 117.012 25.2362 115.496C25.2362 113.98 26.4653 112.751 27.9815 112.751H39.591C41.34 107.182 46.5428 103.142 52.6891 103.142C58.8355 103.142 64.0383 107.182 65.7873 112.751L65.816 112.751H106.222V45.4906H59.5521C58.0359 45.4906 56.8068 44.2615 56.8068 42.7453ZM117.832 112.751C119.581 107.182 124.784 103.142 130.93 103.142C136.821 103.142 141.845 106.853 143.792 112.064H149.571L152.206 108.99V88.7291H147.584C145.655 88.7291 143.868 87.7171 142.876 86.0633L141.601 83.9395L131.396 66.0803H111.713V112.751H117.832ZM125.924 72.0671C127.166 71.1976 128.878 71.4997 129.747 72.7418L135.048 80.314V88.729H115.145C113.628 88.729 112.399 87.4999 112.399 85.9837C112.399 84.4675 113.628 83.2384 115.145 83.2384H129.557V82.0448L125.249 75.8905C124.38 74.6484 124.682 72.9366 125.924 72.0671ZM42.3938 56.4719C40.8776 56.4719 39.6485 57.7011 39.6485 59.2173C39.6485 60.7334 40.8776 61.9626 42.3938 61.9626H84.2598C85.776 61.9626 87.0051 60.7334 87.0051 59.2173C87.0051 57.7011 85.776 56.4719 84.2598 56.4719H42.3938ZM19.7453 74.3165C18.2291 74.3165 17 75.5456 17 77.0618C17 78.578 18.2291 79.8071 19.7453 79.8071H67.7882C69.3044 79.8071 70.5335 78.578 70.5335 77.0618C70.5335 75.5456 69.3044 74.3165 67.7882 74.3165H19.7453ZM52.6891 125.104C57.2377 125.104 60.9251 121.417 60.9251 116.868C60.9251 112.32 57.2377 108.633 52.6891 108.633C48.1406 108.633 44.4532 112.32 44.4532 116.868C44.4532 121.417 48.1406 125.104 52.6891 125.104ZM139.166 116.868C139.166 121.417 135.479 125.104 130.93 125.104C126.382 125.104 122.694 121.417 122.694 116.868C122.694 112.32 126.382 108.633 130.93 108.633C135.479 108.633 139.166 112.32 139.166 116.868Z" fill="black"/>
</svg>
