<svg width="174" height="170" viewBox="0 0 174 170" fill="none" xmlns="http://www.w3.org/2000/svg">
<path fill-rule="evenodd" clip-rule="evenodd" d="M147.964 85.6131C148.791 84.8341 150.133 84.8341 150.961 85.6131L158.379 92.5949C159.207 93.3739 159.207 94.637 158.379 95.416C157.551 96.195 156.209 96.195 155.382 95.416L147.964 88.4342C147.136 87.6551 147.136 86.3921 147.964 85.6131Z" fill="black"/>
<path fill-rule="evenodd" clip-rule="evenodd" d="M94.8061 53.1194H38.0515C36.4018 53.1194 35.0644 54.4946 35.0644 56.191V114.552C35.0644 116.248 36.4018 117.623 38.0515 117.623H94.8061C96.4558 117.623 97.7932 116.248 97.7932 114.552V56.191C97.7932 54.4946 96.4558 53.1194 94.8061 53.1194ZM38.0515 48C33.6522 48 30.0859 51.6672 30.0859 56.191V114.552C30.0859 119.076 33.6522 122.743 38.0515 122.743H94.8061C99.2054 122.743 102.772 119.076 102.772 114.552V56.191C102.772 51.6672 99.2054 48 94.8061 48H38.0515Z" fill="black"/>
<path fill-rule="evenodd" clip-rule="evenodd" d="M97.083 53.0743H35.0886C34.2449 53.0743 33.4957 53.632 33.2277 54.4595L29.6131 65.6229C29.1874 66.9377 30.1334 68.2971 31.474 68.2971H100.698C102.038 68.2971 102.984 66.9377 102.558 65.6229L98.9439 54.4595C98.676 53.632 97.9267 53.0743 97.083 53.0743ZM35.0886 48C32.1357 48 29.5132 49.9521 28.5755 52.8481L24.9609 64.0115C23.4709 68.6134 26.7818 73.3714 31.474 73.3714H100.698C105.39 73.3714 108.701 68.6134 107.211 64.0116L103.596 52.8481C102.658 49.9521 100.036 48 97.083 48H35.0886Z" fill="black"/>
<path fill-rule="evenodd" clip-rule="evenodd" d="M99.2742 50.2621C100.184 49.1816 101.769 49.0685 102.814 50.0097L118.368 64.0204C119.412 64.9616 119.522 66.6005 118.612 67.681C117.702 68.7616 116.117 68.8746 115.072 67.9335L99.5183 53.9227C98.4735 52.9816 98.3642 51.3427 99.2742 50.2621Z" fill="black"/>
<path fill-rule="evenodd" clip-rule="evenodd" d="M34.2893 49.5443C33.4097 48.5023 31.8779 48.3933 30.8679 49.3009L15.8324 62.8112C14.8224 63.7187 14.7168 65.2991 15.5964 66.3411C16.4761 67.3831 18.0079 67.4921 19.0179 66.5845L34.0534 53.0742C35.0633 52.1666 35.169 50.5863 34.2893 49.5443Z" fill="black"/>
<path fill-rule="evenodd" clip-rule="evenodd" d="M144.767 89.106H119.747C118.642 89.106 117.746 90.0187 117.746 91.1446V116.627C117.746 117.753 118.642 118.666 119.747 118.666H144.767C145.872 118.666 146.768 117.753 146.768 116.627V91.1446C146.768 90.0187 145.872 89.106 144.767 89.106ZM119.747 85.0288C116.431 85.0288 113.743 87.767 113.743 91.1446V116.627C113.743 120.005 116.431 122.743 119.747 122.743H144.767C148.083 122.743 150.771 120.005 150.771 116.627V91.1446C150.771 87.767 148.083 85.0288 144.767 85.0288H119.747Z" fill="black"/>
<path fill-rule="evenodd" clip-rule="evenodd" d="M117.211 89.0376L115.638 94.0486H148.877L147.304 89.0376H117.211ZM115.787 85.0288C114.939 85.0288 114.187 85.5904 113.927 86.4188L111.095 95.4386C110.689 96.7327 111.63 98.0574 112.956 98.0574H151.559C152.884 98.0574 153.825 96.7327 153.419 95.4386L150.587 86.4188C150.327 85.5904 149.576 85.0288 148.727 85.0288H115.787Z" fill="black"/>
<path fill-rule="evenodd" clip-rule="evenodd" d="M116.76 85.8518C116.078 84.9429 114.789 84.7587 113.88 85.4403L105.651 91.6116C104.743 92.2933 104.558 93.5827 105.24 94.4916C105.922 95.4004 107.211 95.5846 108.12 94.903L116.348 88.7317C117.257 88.05 117.442 86.7606 116.76 85.8518Z" fill="black"/>
</svg>
