<svg width="43" height="62" viewBox="0 0 43 62" fill="none" xmlns="http://www.w3.org/2000/svg">
<path fill-rule="evenodd" clip-rule="evenodd" d="M36.7779 31.2974C33.425 36.4311 27.6282 39.8238 21.039 39.8238C10.6644 39.8238 2.25418 31.4135 2.25418 21.039C2.25418 10.6644 10.6644 2.25418 21.039 2.25418C31.4135 2.25418 39.8238 10.6644 39.8238 21.039C39.8238 23.522 39.342 25.8925 38.4669 28.0621L38.4402 28.0487C37.959 29.011 37.3999 30.1044 36.7779 31.2974ZM2.07179 30.1542C0.744017 27.3964 0 24.3046 0 21.039C0 9.41947 9.41947 0 21.039 0C32.6585 0 42.0779 9.41947 42.0779 21.039C42.0779 25.24 40.8467 29.1534 38.7253 32.438C34.4686 40.5942 27.3238 53.3176 21.9536 60.7701L21.1313 61.9113L20.1968 60.86C17.7019 58.0533 14.1405 52.3141 10.744 46.3857C7.32643 40.4207 4.01131 34.1483 2.00087 30.1903L2.07179 30.1542ZM32.0765 21.0704C32.0765 27.3365 26.9969 32.4161 20.7308 32.4161C14.4648 32.4161 9.38514 27.3365 9.38514 21.0704C9.38514 14.8044 14.4648 9.72475 20.7308 9.72475C26.9969 9.72475 32.0765 14.8044 32.0765 21.0704Z" fill="white"/>
</svg>
